<svg width="24" height="24" viewBox="0 0 24 24" fill="none" xmlns="http://www.w3.org/2000/svg">
<path d="M11.9596 2.00024C6.4679 2.00024 2 6.46814 2 11.9598C2 17.4519 6.4679 21.9202 11.9596 21.9202C17.4513 21.9202 21.9192 17.4519 21.9192 11.9598C21.9196 6.46814 17.4517 2.00024 11.9596 2.00024ZM17.4625 11.2317V11.2321L14.5793 13.3182L15.6897 16.7122C15.7074 16.7651 15.7166 16.8217 15.7166 16.8795C15.7166 17.1759 15.4767 17.4166 15.1802 17.4166C15.0623 17.4166 14.954 17.3789 14.8657 17.3151L11.96 15.2134L9.05428 17.3151C8.96602 17.3789 8.85771 17.4166 8.74016 17.4166C8.44329 17.4166 8.20299 17.1763 8.20299 16.8795C8.20299 16.8213 8.21261 16.7651 8.23027 16.7122L9.34112 13.3182L6.45787 11.2321V11.2317C6.32307 11.1346 6.23562 10.9762 6.23562 10.7972C6.23562 10.5008 6.47552 10.2609 6.77239 10.2609H10.3417L11.4469 6.88256C11.5143 6.66311 11.7185 6.50345 11.9604 6.50345C12.2019 6.50345 12.4065 6.66311 12.4735 6.88256L13.5787 10.2609H17.148C17.4445 10.2609 17.6848 10.5008 17.6848 10.7972C17.6844 10.9762 17.5969 11.1346 17.4625 11.2317Z" fill="#8064A2"/>
</svg>
