<svg width="16" height="16" viewBox="0 0 16 16" fill="none" xmlns="http://www.w3.org/2000/svg">
<path fill-rule="evenodd" clip-rule="evenodd" d="M3.27736 8.00001C3.27736 7.48039 3.36361 6.98214 3.51773 6.51489L0.821495 4.45603C0.295998 5.5229 0 6.72514 0 8.00001C0 9.27387 0.295748 10.4752 0.82037 11.5415L3.5151 9.47862C3.36248 9.0135 3.27736 8.51713 3.27736 8.00001Z" fill="#FBBC05"/>
<path fill-rule="evenodd" clip-rule="evenodd" d="M8.01136 3.27273C9.14023 3.27273 10.1599 3.67273 10.961 4.32723L13.2915 1.99999C11.8713 0.763621 10.0506 0 8.01136 0C4.84538 0 2.1244 1.81049 0.821529 4.45597L3.51764 6.51484C4.13888 4.6291 5.90975 3.27273 8.01136 3.27273Z" fill="#EA4335"/>
<path fill-rule="evenodd" clip-rule="evenodd" d="M8.01136 12.7273C5.90987 12.7273 4.13901 11.3709 3.51776 9.48518L0.821529 11.5437C2.1244 14.1895 4.84538 16 8.01136 16C9.96535 16 11.831 15.3061 13.2311 14.0062L10.6718 12.0277C9.94973 12.4825 9.04036 12.7273 8.01136 12.7273Z" fill="#34A853"/>
<path fill-rule="evenodd" clip-rule="evenodd" d="M15.6585 8.00017C15.6585 7.52742 15.5856 7.0183 15.4764 6.54568H8.01143V9.63654H12.3084C12.0935 10.6904 11.5088 11.5005 10.6719 12.0278L13.2311 14.0063C14.7019 12.6413 15.6585 10.6078 15.6585 8.00017Z" fill="#4285F4"/>
</svg>
