<svg width="40" height="40" viewBox="0 0 40 40" fill="none" xmlns="http://www.w3.org/2000/svg">
<path d="M20 40C31.0277 40 40 31.0277 40 20C40 16.7247 39.1373 13.6632 37.7383 10.9336L36 7.99805L33 4.99805L29.0566 2.25782C26.3293 0.861735 23.2723 2.35231e-06 20 2.06624e-06C8.9723 1.10217e-06 2.71253e-06 8.97229 1.74846e-06 20C7.84383e-07 31.0277 8.97229 40 20 40ZM26 26.998C23.791 26.998 22 25.207 22 22.998C22 22.912 22.0204 22.8311 22.0254 22.7461C22.0114 22.6651 22 22.5821 22 22.4961C22 22.2211 22.0526 15.7079 26.5996 12.2969C26.8696 12.0949 27.185 11.9961 27.498 11.9961C27.954 11.9961 28.4042 12.2047 28.6992 12.5977C29.1962 13.2607 29.0624 14.2003 28.4004 14.6973C26.8924 15.8283 26.0568 17.5191 25.5898 19.0391C25.7268 19.0251 25.859 18.998 26 18.998C28.209 18.998 30 20.789 30 22.998C30 25.207 28.209 26.998 26 26.998ZM14 26.998C11.791 26.998 10 25.207 10 22.998C10 22.912 10.0204 22.8311 10.0254 22.7461C10.0114 22.6651 10 22.5821 10 22.4961C10 22.2211 10.0526 15.7079 14.5996 12.2969C14.8696 12.0949 15.185 11.9961 15.498 11.9961C15.954 11.9961 16.4042 12.2047 16.6992 12.5977C17.1962 13.2607 17.0624 14.2003 16.4004 14.6973C14.8924 15.8283 14.0568 17.5191 13.5898 19.0391C13.7268 19.0251 13.859 18.998 14 18.998C16.209 18.998 18 20.789 18 22.998C18 25.207 16.209 26.998 14 26.998Z" fill="#8064A2"/>
</svg>
