<svg width="10" height="10" viewBox="0 0 10 10" fill="none" xmlns="http://www.w3.org/2000/svg">
<path d="M4.61324 0.278677C4.73721 -0.0928962 5.26279 -0.0928968 5.38676 0.278677L6.30617 3.03427C6.36133 3.19959 6.51546 3.31157 6.68972 3.31294L9.59456 3.33582C9.98626 3.33891 10.1487 3.83876 9.8336 4.07149L7.49698 5.79743C7.3568 5.90097 7.29793 6.08216 7.35048 6.24832L8.22636 9.01806C8.34447 9.39154 7.91927 9.70046 7.60056 9.47273L5.23705 7.78382C5.09526 7.6825 4.90474 7.68249 4.76295 7.78382L2.39944 9.47273C2.08073 9.70046 1.65553 9.39154 1.77364 9.01806L2.64952 6.24832C2.70207 6.08216 2.6432 5.90097 2.50302 5.79743L0.166403 4.07149C-0.148674 3.83876 0.013738 3.33891 0.405436 3.33582L3.31028 3.31294C3.48454 3.31157 3.63867 3.19959 3.69383 3.03427L4.61324 0.278677Z" fill="white"/>
</svg>
