<svg width="10" height="10" viewBox="0 0 10 10" fill="none" xmlns="http://www.w3.org/2000/svg">
<path d="M4.61322 0.278691C4.7372 -0.0929008 5.2628 -0.0929015 5.38678 0.27869L6.30624 3.03442C6.3614 3.19975 6.51553 3.31173 6.68981 3.31311L9.59479 3.33599C9.98651 3.33907 10.1489 3.83895 9.83384 4.07169L7.49711 5.79771C7.35692 5.90126 7.29805 6.08246 7.3506 6.24863L8.22652 9.0185C8.34463 9.392 7.91941 9.70095 7.60069 9.4732L5.23706 7.7842C5.09526 7.68288 4.90474 7.68288 4.76294 7.7842L2.39931 9.4732C2.08059 9.70095 1.65537 9.392 1.77348 9.01851L2.6494 6.24863C2.70195 6.08246 2.64308 5.90126 2.50289 5.79771L0.166163 4.07169C-0.14893 3.83895 0.0134898 3.33907 0.405207 3.33599L3.31019 3.31311C3.48447 3.31173 3.6386 3.19975 3.69376 3.03442L4.61322 0.278691Z" fill="white"/>
</svg>
