<svg width="24" height="24" viewBox="0 0 24 24" fill="none" xmlns="http://www.w3.org/2000/svg">
<path d="M21.9198 7.25002V7.38002L20.4598 12.78C20.2873 13.421 19.907 13.9866 19.3786 14.3883C18.8503 14.79 18.2036 15.0051 17.5398 15H9.88982C9.13882 15.0031 8.41398 14.7243 7.85853 14.2189C7.30308 13.7134 6.95741 13.018 6.88982 12.27L6.23982 4.91002C6.2173 4.6607 6.10207 4.4289 5.91692 4.26041C5.73177 4.09192 5.49016 3.99901 5.23982 4.00002H3.06982C2.80461 4.00002 2.55025 3.89467 2.36272 3.70713C2.17518 3.51959 2.06982 3.26524 2.06982 3.00002C2.06982 2.73481 2.17518 2.48045 2.36272 2.29292C2.55025 2.10538 2.80461 2.00002 3.06982 2.00002H5.23982C5.99083 1.99698 6.71567 2.27572 7.27112 2.78118C7.82657 3.28665 8.17224 3.98206 8.23982 4.73002V5.00002H19.9298C20.2149 4.99779 20.4971 5.05652 20.7577 5.17228C21.0182 5.28805 21.2509 5.45816 21.4403 5.67124C21.6297 5.88431 21.7714 6.1354 21.8558 6.4077C21.9402 6.67999 21.9655 6.96718 21.9298 7.25002H21.9198Z" fill="#8064A2"/>
<path d="M9.06982 22C10.4505 22 11.5698 20.8807 11.5698 19.5C11.5698 18.1193 10.4505 17 9.06982 17C7.68911 17 6.56982 18.1193 6.56982 19.5C6.56982 20.8807 7.68911 22 9.06982 22Z" fill="#8064A2"/>
<path d="M17.0698 22C18.4505 22 19.5698 20.8807 19.5698 19.5C19.5698 18.1193 18.4505 17 17.0698 17C15.6891 17 14.5698 18.1193 14.5698 19.5C14.5698 20.8807 15.6891 22 17.0698 22Z" fill="#8064A2"/>
</svg>
